<svg width="24" height="24" viewBox="0 0 24 24" fill="none" xmlns="http://www.w3.org/2000/svg">
<path d="M2.5 21.4999L8.04927 19.3656C8.40421 19.2291 8.58168 19.1608 8.74772 19.0717C8.8952 18.9925 9.0358 18.9012 9.16804 18.7985C9.31692 18.683 9.45137 18.5486 9.72028 18.2797L21 6.99994C22.1046 5.89537 22.1046 4.10451 21 2.99994C19.8955 1.89537 18.1046 1.89537 17 2.99993L5.72028 14.2797C5.45138 14.5486 5.31692 14.683 5.20139 14.8319C5.09877 14.9641 5.0074 15.1047 4.92823 15.2522C4.83911 15.4183 4.77085 15.5957 4.63433 15.9507L2.5 21.4999ZM2.5 21.4999L4.55812 16.1489C4.7054 15.766 4.77903 15.5745 4.90534 15.4868C5.01572 15.4102 5.1523 15.3812 5.2843 15.4064C5.43533 15.4352 5.58038 15.5803 5.87048 15.8704L8.12957 18.1295C8.41967 18.4196 8.56472 18.5646 8.59356 18.7157C8.61877 18.8477 8.58979 18.9842 8.51314 19.0946C8.42545 19.2209 8.23399 19.2946 7.85107 19.4418L2.5 21.4999Z" stroke="#505790" stroke-width="1.5" stroke-linecap="round" stroke-linejoin="round"/>
</svg>
